<?xml version="1.0" encoding="UTF-8"?>
<!DOCTYPE svg PUBLIC "-//W3C//DTD SVG 1.1//EN" "http://www.w3.org/Graphics/SVG/1.1/DTD/svg11.dtd">
<svg xmlns="http://www.w3.org/2000/svg" version="1.1" width="512px" height="512px" style="shape-rendering:geometricPrecision; text-rendering:geometricPrecision; image-rendering:optimizeQuality; fill-rule:evenodd; clip-rule:evenodd" xmlns:xlink="http://www.w3.org/1999/xlink">
<g><path style="opacity:1" fill="#e9728c" d="M 248.5,-0.5 C 253.167,-0.5 257.833,-0.5 262.5,-0.5C 275.345,5.50832 285.179,14.8417 292,27.5C 311.254,65.5151 321.921,105.848 324,148.5C 324.5,160.829 324.667,173.162 324.5,185.5C 310.437,206.232 296.77,227.232 283.5,248.5C 280.943,237.903 274.943,235.57 265.5,241.5C 258.833,230.833 252.167,230.833 245.5,241.5C 236.057,235.57 230.057,237.903 227.5,248.5C 214.234,227.235 200.568,206.235 186.5,185.5C 184.503,137.15 192.336,90.4834 210,45.5C 215.983,30.3502 224.817,17.1836 236.5,6C 240.434,3.53607 244.434,1.36941 248.5,-0.5 Z"/></g>
<g><path style="opacity:0.997" fill="#f38ba6" d="M 186.5,185.5 C 200.568,206.235 214.234,227.235 227.5,248.5C 227.5,248.833 227.5,249.167 227.5,249.5C 221.979,257.519 214.979,264.019 206.5,269C 202.167,269.667 197.833,269.667 193.5,269C 185.338,267.622 177.338,265.955 169.5,264C 178.271,268.884 185.605,275.384 191.5,283.5C 189.851,285.995 187.517,287.495 184.5,288C 174.833,288.333 165.167,288.667 155.5,289C 165.976,292.486 175.476,297.653 184,304.5C 183.301,311.379 179.467,315.712 172.5,317.5C 150.674,325.893 129.007,325.393 107.5,316C 90.5108,307.671 75.1774,297.005 61.5,284C 36.7043,258.051 16.0376,229.218 -0.5,197.5C -0.5,197.167 -0.5,196.833 -0.5,196.5C 9.74338,193.878 19.0767,189.378 27.5,183C 42.2506,169.579 57.5839,156.912 73.5,145C 103.361,128.518 131.027,131.518 156.5,154C 167.097,164.093 177.097,174.593 186.5,185.5 Z"/></g>
<g><path style="opacity:0.997" fill="#f38ba6" d="M 511.5,196.5 C 511.5,197.833 511.5,199.167 511.5,200.5C 510.833,201.833 510.167,203.167 509.5,204.5C 504.071,212.608 498.904,221.608 494,231.5C 477.034,259.274 455.201,282.441 428.5,301C 407.602,313.613 384.935,320.113 360.5,320.5C 352.969,320.517 345.635,319.517 338.5,317.5C 323.652,311.684 322.986,304.85 336.5,297C 342.718,294.058 349.051,291.391 355.5,289C 345.5,288.667 335.5,288.333 325.5,288C 321.05,287.224 319.55,284.724 321,280.5C 327.255,274.241 334.088,268.741 341.5,264C 333.222,265.482 324.888,267.149 316.5,269C 309.493,270.562 303.159,269.229 297.5,265C 292.228,260.235 287.561,255.069 283.5,249.5C 283.5,249.167 283.5,248.833 283.5,248.5C 296.77,227.232 310.437,206.232 324.5,185.5C 335.268,172.898 346.935,161.064 359.5,150C 384.304,131.266 410.304,129.599 437.5,145C 453.416,156.912 468.749,169.579 483.5,183C 491.923,189.378 501.257,193.878 511.5,196.5 Z"/></g>
<g><path style="opacity:1" fill="#ba6a7e" d="M 253.5,184.5 C 255.722,184.178 257.556,184.845 259,186.5C 259.667,200.5 259.667,214.5 259,228.5C 256.667,231.167 254.333,231.167 252,228.5C 251.333,214.5 251.333,200.5 252,186.5C 252.717,185.956 253.217,185.289 253.5,184.5 Z"/></g>
<g><path style="opacity:1" fill="#ea728c" d="M 29.5,198.5 C 32.4245,198.46 35.0912,199.293 37.5,201C 77.1915,227.094 120.025,246.261 166,258.5C 167,262.337 165.5,264.337 161.5,264.5C 114.112,252.435 70.1117,232.935 29.5,206C 27.1116,203.597 27.1116,201.097 29.5,198.5 Z"/></g>
<g><path style="opacity:1" fill="#bb6a7e" d="M 216.5,198.5 C 219.928,198.547 222.928,199.713 225.5,202C 235.747,210.866 242.58,221.7 246,234.5C 243.667,237.167 241.333,237.167 239,234.5C 233.862,222.231 225.862,212.231 215,204.5C 214.252,202.16 214.752,200.16 216.5,198.5 Z"/></g>
<g><path style="opacity:1" fill="#bb6a7e" d="M 289.5,198.5 C 294.176,198.013 296.343,200.013 296,204.5C 285.138,212.231 277.138,222.231 272,234.5C 268.573,236.286 266.073,235.452 264.5,232C 270.019,218.659 278.352,207.493 289.5,198.5 Z"/></g>
<g><path style="opacity:1" fill="#ea728c" d="M 477.5,198.5 C 478.93,198.421 480.264,198.754 481.5,199.5C 482.769,201.695 482.769,203.861 481.5,206C 442.168,231.677 399.835,251.01 354.5,264C 349.333,265.5 347.5,263.667 349,258.5C 349.5,258 350,257.5 350.5,257C 395.991,243.915 438.324,224.415 477.5,198.5 Z"/></g>
<g><path style="opacity:1" fill="#e585a3" d="M -0.5,197.5 C 16.0376,229.218 36.7043,258.051 61.5,284C 75.1774,297.005 90.5108,307.671 107.5,316C 129.007,325.393 150.674,325.893 172.5,317.5C 176.352,319.057 180.352,320.557 184.5,322C 190.177,325.636 192.01,330.803 190,337.5C 189.427,339.641 188.594,341.641 187.5,343.5C 184.921,345.025 182.254,346.359 179.5,347.5C 179.167,347.5 178.833,347.5 178.5,347.5C 145.014,355.46 111.348,356.46 77.5,350.5C 71.9921,348.706 66.9921,345.872 62.5,342C 56.2275,335.062 50.7275,327.562 46,319.5C 26.6433,281.25 11.1433,241.583 -0.5,200.5C -0.5,199.5 -0.5,198.5 -0.5,197.5 Z"/></g>
<g><path style="opacity:1" fill="#e585a3" d="M 509.5,204.5 C 498.576,244.347 483.743,282.681 465,319.5C 460.273,327.562 454.773,335.062 448.5,342C 444.022,345.902 439.022,348.735 433.5,350.5C 399.656,356.477 365.989,355.477 332.5,347.5C 332.167,347.5 331.833,347.5 331.5,347.5C 328.746,346.359 326.079,345.025 323.5,343.5C 319.217,336.319 319.55,329.486 324.5,323C 329.159,320.842 333.825,319.009 338.5,317.5C 345.635,319.517 352.969,320.517 360.5,320.5C 384.935,320.113 407.602,313.613 428.5,301C 455.201,282.441 477.034,259.274 494,231.5C 498.904,221.608 504.071,212.608 509.5,204.5 Z"/></g>
<g><path style="opacity:1" fill="#ea728c" d="M 156.5,224.5 C 157.552,224.351 158.552,224.517 159.5,225C 170.876,239.383 184.376,251.217 200,260.5C 200.833,265 199,266.833 194.5,266C 178.232,257.404 164.732,245.57 154,230.5C 153.333,229.5 153.333,228.5 154,227.5C 155.045,226.627 155.878,225.627 156.5,224.5 Z"/></g>
<g><path style="opacity:1" fill="#ea728c" d="M 351.5,224.5 C 355.323,224.818 357.157,226.818 357,230.5C 345.014,246.405 330.181,258.905 312.5,268C 306.277,268.964 304.611,266.797 307.5,261.5C 325.189,252.815 339.856,240.482 351.5,224.5 Z"/></g>
<g><path style="opacity:1" fill="#af5a72" d="M 283.5,248.5 C 283.5,248.833 283.5,249.167 283.5,249.5C 281.07,254.037 278.403,258.37 275.5,262.5C 262.078,256.044 248.744,256.044 235.5,262.5C 232.597,258.37 229.93,254.037 227.5,249.5C 227.5,249.167 227.5,248.833 227.5,248.5C 230.057,237.903 236.057,235.57 245.5,241.5C 252.167,230.833 258.833,230.833 265.5,241.5C 274.943,235.57 280.943,237.903 283.5,248.5 Z"/></g>
<g><path style="opacity:1" fill="#bb6a7e" d="M 227.5,249.5 C 229.93,254.037 232.597,258.37 235.5,262.5C 229.596,266.965 226.263,272.965 225.5,280.5C 205.679,288.27 199.346,302.27 206.5,322.5C 202.798,326.852 199.298,331.518 196,336.5C 193.564,339.447 190.731,341.78 187.5,343.5C 188.594,341.641 189.427,339.641 190,337.5C 192.01,330.803 190.177,325.636 184.5,322C 180.352,320.557 176.352,319.057 172.5,317.5C 179.467,315.712 183.301,311.379 184,304.5C 175.476,297.653 165.976,292.486 155.5,289C 165.167,288.667 174.833,288.333 184.5,288C 187.517,287.495 189.851,285.995 191.5,283.5C 185.605,275.384 178.271,268.884 169.5,264C 177.338,265.955 185.338,267.622 193.5,269C 197.833,269.667 202.167,269.667 206.5,269C 214.979,264.019 221.979,257.519 227.5,249.5 Z"/></g>
<g><path style="opacity:1" fill="#bb6a7e" d="M 283.5,249.5 C 287.561,255.069 292.228,260.235 297.5,265C 303.159,269.229 309.493,270.562 316.5,269C 324.888,267.149 333.222,265.482 341.5,264C 334.088,268.741 327.255,274.241 321,280.5C 319.55,284.724 321.05,287.224 325.5,288C 335.5,288.333 345.5,288.667 355.5,289C 349.051,291.391 342.718,294.058 336.5,297C 322.986,304.85 323.652,311.684 338.5,317.5C 333.825,319.009 329.159,320.842 324.5,323C 319.55,329.486 319.217,336.319 323.5,343.5C 320.269,341.78 317.436,339.447 315,336.5C 311.702,331.518 308.202,326.852 304.5,322.5C 311.656,302.276 305.322,288.276 285.5,280.5C 285.242,276.56 284.076,272.893 282,269.5C 279.628,267.297 277.461,264.963 275.5,262.5C 278.403,258.37 281.07,254.037 283.5,249.5 Z"/></g>
<g><path style="opacity:1" fill="#febe5b" d="M 275.5,262.5 C 277.461,264.963 279.628,267.297 282,269.5C 284.076,272.893 285.242,276.56 285.5,280.5C 285.699,283.941 285.199,287.274 284,290.5C 280.667,296.5 277.333,302.5 274,308.5C 272.566,312.406 272.233,316.406 273,320.5C 276.377,326.588 279.211,332.921 281.5,339.5C 281.802,342.059 281.468,344.393 280.5,346.5C 270.826,335.576 258.826,332.076 244.5,336C 239.423,338.257 235.09,341.424 231.5,345.5C 229.72,344.01 229.054,342.01 229.5,339.5C 231.432,333.631 233.932,327.964 237,322.5C 237.667,317.833 237.667,313.167 237,308.5C 233.667,302.5 230.333,296.5 227,290.5C 225.801,287.274 225.301,283.941 225.5,280.5C 226.263,272.965 229.596,266.965 235.5,262.5C 248.744,256.044 262.078,256.044 275.5,262.5 Z"/></g>
<g><path style="opacity:1" fill="#e7efed" d="M 250.5,272.5 C 265.632,271.791 270.465,278.457 265,292.5C 260.909,296.305 256.076,297.472 250.5,296C 244.333,292.155 242.166,286.655 244,279.5C 245.694,276.642 247.861,274.309 250.5,272.5 Z"/></g>
<g><path style="opacity:1" fill="#af5a72" d="M 225.5,280.5 C 225.301,283.941 225.801,287.274 227,290.5C 230.333,296.5 233.667,302.5 237,308.5C 237.667,313.167 237.667,317.833 237,322.5C 233.932,327.964 231.432,333.631 229.5,339.5C 218.393,338.45 210.727,332.784 206.5,322.5C 199.346,302.27 205.679,288.27 225.5,280.5 Z"/></g>
<g><path style="opacity:1" fill="#af5a72" d="M 285.5,280.5 C 305.322,288.276 311.656,302.276 304.5,322.5C 300.297,332.776 292.63,338.442 281.5,339.5C 279.211,332.921 276.377,326.588 273,320.5C 272.233,316.406 272.566,312.406 274,308.5C 277.333,302.5 280.667,296.5 284,290.5C 285.199,287.274 285.699,283.941 285.5,280.5 Z"/></g>
<g><path style="opacity:1" fill="#ea728c" d="M 116.5,299.5 C 134.571,303.683 152.905,305.516 171.5,305C 174.167,307.333 174.167,309.667 171.5,312C 152.499,313.786 133.832,312.12 115.5,307C 114.083,304.257 114.416,301.757 116.5,299.5 Z"/></g>
<g><path style="opacity:1" fill="#ea728c" d="M 390.5,299.5 C 395.984,299.481 397.65,301.981 395.5,307C 374.8,312.126 353.8,313.793 332.5,312C 329.083,309.679 328.75,307.012 331.5,304C 332.5,303.833 333.5,303.667 334.5,303.5C 353.547,305.541 372.214,304.208 390.5,299.5 Z"/></g>
<g><path style="opacity:1" fill="#d14c62" d="M 206.5,322.5 C 210.727,332.784 218.393,338.45 229.5,339.5C 229.054,342.01 229.72,344.01 231.5,345.5C 230.925,348.989 231.759,352.322 234,355.5C 236.436,358.285 238.936,360.952 241.5,363.5C 236.175,368.821 230.509,373.821 224.5,378.5C 224.661,363.944 218.328,359.611 205.5,365.5C 205.569,357.785 202.236,352.285 195.5,349C 190.519,348.252 185.519,347.752 180.5,347.5C 180.5,350.833 180.5,354.167 180.5,357.5C 179.521,354.375 179.187,351.042 179.5,347.5C 182.254,346.359 184.921,345.025 187.5,343.5C 190.731,341.78 193.564,339.447 196,336.5C 199.298,331.518 202.798,326.852 206.5,322.5 Z"/></g>
<g><path style="opacity:1" fill="#d14c62" d="M 304.5,322.5 C 308.202,326.852 311.702,331.518 315,336.5C 317.436,339.447 320.269,341.78 323.5,343.5C 326.079,345.025 328.746,346.359 331.5,347.5C 331.813,351.042 331.479,354.375 330.5,357.5C 330.5,354.167 330.5,350.833 330.5,347.5C 323.804,346.849 317.471,348.015 311.5,351C 307.239,355.243 305.405,360.41 306,366.5C 302.208,362.872 297.708,361.706 292.5,363C 290.622,364.543 289.122,366.376 288,368.5C 287.824,371.882 287.324,375.215 286.5,378.5C 280.491,373.821 274.825,368.821 269.5,363.5C 275.125,359.188 278.791,353.522 280.5,346.5C 281.468,344.393 281.802,342.059 281.5,339.5C 292.63,338.442 300.297,332.776 304.5,322.5 Z"/></g>
<g><path style="opacity:1" fill="#b05b72" d="M 280.5,346.5 C 278.791,353.522 275.125,359.188 269.5,363.5C 268.508,363.328 267.842,363.662 267.5,364.5C 259.5,369.833 251.5,369.833 243.5,364.5C 243.158,363.662 242.492,363.328 241.5,363.5C 238.936,360.952 236.436,358.285 234,355.5C 231.759,352.322 230.925,348.989 231.5,345.5C 235.09,341.424 239.423,338.257 244.5,336C 258.826,332.076 270.826,335.576 280.5,346.5 Z"/></g>
<g><path style="opacity:1" fill="#e9728c" d="M 178.5,347.5 C 173.548,354.291 168.382,360.958 163,367.5C 159.231,372.688 156.897,378.355 156,384.5C 157.473,388.779 159.473,392.779 162,396.5C 162.667,399.833 162.667,403.167 162,406.5C 159.299,411.853 156.632,417.186 154,422.5C 153.333,425.167 153.333,427.833 154,430.5C 158.392,432.378 162.726,434.378 167,436.5C 167.985,438.366 168.485,440.366 168.5,442.5C 167.661,446.355 166.661,450.188 165.5,454C 165.795,456.923 167.129,459.257 169.5,461C 183.316,460.923 195.982,457.09 207.5,449.5C 208.5,449.833 209.167,450.5 209.5,451.5C 178.542,488.979 138.542,508.979 89.5,511.5C 70.5,511.5 51.5,511.5 32.5,511.5C 21.9257,510.572 11.259,509.239 0.5,507.5C 7.88351,496.397 13.3835,484.397 17,471.5C 21.0496,454.919 24.7163,438.252 28,421.5C 34.6858,390.731 51.1858,367.065 77.5,350.5C 111.348,356.46 145.014,355.46 178.5,347.5 Z"/></g>
<g><path style="opacity:1" fill="#e15c63" d="M 241.5,363.5 C 242.492,363.328 243.158,363.662 243.5,364.5C 243.004,374.114 245.504,383.114 251,391.5C 252.351,393.019 253.851,394.352 255.5,395.5C 259.902,391.702 263.069,387.036 265,381.5C 266.992,375.77 267.825,370.103 267.5,364.5C 267.842,363.662 268.508,363.328 269.5,363.5C 274.825,368.821 280.491,373.821 286.5,378.5C 287.324,375.215 287.824,371.882 288,368.5C 289.122,366.376 290.622,364.543 292.5,363C 297.708,361.706 302.208,362.872 306,366.5C 305.405,360.41 307.239,355.243 311.5,351C 317.471,348.015 323.804,346.849 330.5,347.5C 330.5,350.833 330.5,354.167 330.5,357.5C 330.588,378.892 327.755,399.892 322,420.5C 320.217,426.067 317.883,431.401 315,436.5C 311.33,441.002 307.497,445.335 303.5,449.5C 302.5,449.833 301.833,450.5 301.5,451.5C 290.208,459.496 279.208,467.996 268.5,477C 264.634,479.933 260.301,481.766 255.5,482.5C 250.699,481.766 246.366,479.933 242.5,477C 231.792,467.996 220.792,459.496 209.5,451.5C 209.167,450.5 208.5,449.833 207.5,449.5C 203.503,445.335 199.67,441.002 196,436.5C 188.837,422.342 184.504,407.342 183,391.5C 181.504,380.213 180.67,368.879 180.5,357.5C 180.5,354.167 180.5,350.833 180.5,347.5C 185.519,347.752 190.519,348.252 195.5,349C 202.236,352.285 205.569,357.785 205.5,365.5C 218.328,359.611 224.661,363.944 224.5,378.5C 230.509,373.821 236.175,368.821 241.5,363.5 Z"/></g>
<g><path style="opacity:1" fill="#e9728c" d="M 332.5,347.5 C 365.989,355.477 399.656,356.477 433.5,350.5C 458.6,366.138 474.767,388.472 482,417.5C 485.745,435.557 489.745,453.557 494,471.5C 497.616,484.397 503.116,496.397 510.5,507.5C 499.741,509.239 489.074,510.572 478.5,511.5C 459.5,511.5 440.5,511.5 421.5,511.5C 372.458,508.979 332.458,488.979 301.5,451.5C 301.833,450.5 302.5,449.833 303.5,449.5C 314.591,457.252 326.924,461.085 340.5,461C 343.635,459.734 345.302,457.401 345.5,454C 344.339,450.188 343.339,446.355 342.5,442.5C 342.515,440.366 343.015,438.366 344,436.5C 348.274,434.378 352.608,432.378 357,430.5C 357.667,428.167 357.667,425.833 357,423.5C 354.81,417.633 352.143,411.966 349,406.5C 348.333,403.167 348.333,399.833 349,396.5C 351.527,392.779 353.527,388.779 355,384.5C 354.103,378.355 351.769,372.688 348,367.5C 342.618,360.958 337.452,354.291 332.5,347.5 Z"/></g>
<g><path style="opacity:1" fill="#af5a72" d="M 178.5,347.5 C 178.833,347.5 179.167,347.5 179.5,347.5C 179.187,351.042 179.521,354.375 180.5,357.5C 180.67,368.879 181.504,380.213 183,391.5C 184.504,407.342 188.837,422.342 196,436.5C 199.67,441.002 203.503,445.335 207.5,449.5C 195.982,457.09 183.316,460.923 169.5,461C 167.129,459.257 165.795,456.923 165.5,454C 166.661,450.188 167.661,446.355 168.5,442.5C 168.485,440.366 167.985,438.366 167,436.5C 162.726,434.378 158.392,432.378 154,430.5C 153.333,427.833 153.333,425.167 154,422.5C 156.632,417.186 159.299,411.853 162,406.5C 162.667,403.167 162.667,399.833 162,396.5C 159.473,392.779 157.473,388.779 156,384.5C 156.897,378.355 159.231,372.688 163,367.5C 168.382,360.958 173.548,354.291 178.5,347.5 Z"/></g>
<g><path style="opacity:1" fill="#af5a72" d="M 331.5,347.5 C 331.833,347.5 332.167,347.5 332.5,347.5C 337.452,354.291 342.618,360.958 348,367.5C 351.769,372.688 354.103,378.355 355,384.5C 353.527,388.779 351.527,392.779 349,396.5C 348.333,399.833 348.333,403.167 349,406.5C 352.143,411.966 354.81,417.633 357,423.5C 357.667,425.833 357.667,428.167 357,430.5C 352.608,432.378 348.274,434.378 344,436.5C 343.015,438.366 342.515,440.366 342.5,442.5C 343.339,446.355 344.339,450.188 345.5,454C 345.302,457.401 343.635,459.734 340.5,461C 326.924,461.085 314.591,457.252 303.5,449.5C 307.497,445.335 311.33,441.002 315,436.5C 317.883,431.401 320.217,426.067 322,420.5C 327.755,399.892 330.588,378.892 330.5,357.5C 331.479,354.375 331.813,351.042 331.5,347.5 Z"/></g>
<g><path style="opacity:1" fill="#bb6a7e" d="M 345.5,353.5 C 346.873,353.343 348.207,353.51 349.5,354C 373.278,372.112 394.778,392.612 414,415.5C 418,420.833 422,426.167 426,431.5C 426.852,437.999 424.519,439.666 419,436.5C 398.081,406.914 373.081,381.247 344,359.5C 343.252,357.16 343.752,355.16 345.5,353.5 Z"/></g>
<g><path style="opacity:1" fill="#bb6a7e" d="M 375.5,355.5 C 377.989,355.298 380.323,355.798 382.5,357C 401.855,371.016 419.355,387.182 435,405.5C 438.106,411.218 436.606,413.718 430.5,413C 413.857,393.685 395.357,376.518 375,361.5C 374.322,359.402 374.489,357.402 375.5,355.5 Z"/></g>
<g><path style="opacity:1" fill="#bb6a7e" d="M 155.5,358.5 C 160.675,357.507 162.509,359.507 161,364.5C 133.713,385.452 110.213,409.952 90.5,438C 85.5036,438.664 83.6703,436.498 85,431.5C 105.286,404.047 128.786,379.714 155.5,358.5 Z"/></g>
<g><path style="opacity:1" fill="#bb6a7e" d="M 124.5,359.5 C 130.067,358.753 131.9,361.087 130,366.5C 111.939,380.224 95.439,395.724 80.5,413C 74.3939,413.718 72.8939,411.218 76,405.5C 90.7999,388.528 106.967,373.195 124.5,359.5 Z"/></g>
<g><path style="opacity:1" fill="#f8b033" d="M 243.5,364.5 C 251.5,369.833 259.5,369.833 267.5,364.5C 267.825,370.103 266.992,375.77 265,381.5C 263.069,387.036 259.902,391.702 255.5,395.5C 253.851,394.352 252.351,393.019 251,391.5C 245.504,383.114 243.004,374.114 243.5,364.5 Z"/></g>
<g><path style="opacity:1" fill="#d14b62" d="M 272.5,376.5 C 275.044,376.104 277.211,376.771 279,378.5C 281.289,387.703 281.956,397.036 281,406.5C 278.321,409.172 275.988,408.838 274,405.5C 274.044,396.982 272.878,388.648 270.5,380.5C 270.752,378.927 271.418,377.594 272.5,376.5 Z"/></g>
<g><path style="opacity:1" fill="#d14b62" d="M 233.5,377.5 C 237.824,377.158 239.824,379.158 239.5,383.5C 238.053,390.754 237.22,398.087 237,405.5C 234.975,407.725 232.642,408.059 230,406.5C 229.225,398.452 229.558,390.452 231,382.5C 231.366,380.548 232.199,378.882 233.5,377.5 Z"/></g>
<g><path style="opacity:1" fill="#bb6a7e" d="M 354.5,392.5 C 358.331,392.249 361.664,393.416 364.5,396C 377.086,405.251 387.586,416.418 396,429.5C 397.33,434.498 395.496,436.664 390.5,436C 380.71,421.209 368.543,408.709 354,398.5C 353.322,396.402 353.489,394.402 354.5,392.5 Z"/></g>
<g><path style="opacity:1" fill="#bb6a7e" d="M 149.5,393.5 C 154,393.164 155.833,395.164 155,399.5C 141.417,409.748 129.917,421.915 120.5,436C 115.41,436.829 113.576,434.662 115,429.5C 124.319,415.349 135.819,403.349 149.5,393.5 Z"/></g>
<g><path style="opacity:1" fill="#d14b62" d="M 253.5,400.5 C 255.722,400.178 257.556,400.845 259,402.5C 259.667,414.833 259.667,427.167 259,439.5C 256.667,442.167 254.333,442.167 252,439.5C 251.333,427.167 251.333,414.833 252,402.5C 252.717,401.956 253.217,401.289 253.5,400.5 Z"/></g>
<g><path style="opacity:1" fill="#bb6a7e" d="M 63.5,450.5 C 66.8852,449.79 69.2186,450.956 70.5,454C 56.378,474.456 38.7114,491.123 17.5,504C 12.5036,504.664 10.6703,502.498 12,497.5C 32.4237,485.377 49.5904,469.71 63.5,450.5 Z"/></g>
<g><path style="opacity:1" fill="#bb6a7e" d="M 442.5,450.5 C 444.199,450.34 445.866,450.506 447.5,451C 462.156,469.99 479.656,485.823 500,498.5C 501.261,504.08 499.094,505.913 493.5,504C 473.208,491.381 455.708,475.547 441,456.5C 440.252,454.16 440.752,452.16 442.5,450.5 Z"/></g>
</svg>
